<?xml version="1.0" standalone="no"?>
<!DOCTYPE svg PUBLIC "-//W3C//DTD SVG 20010904//EN"
 "http://www.w3.org/TR/2001/REC-SVG-20010904/DTD/svg10.dtd">
<svg version="1.0" xmlns="http://www.w3.org/2000/svg"
 width="260.000000pt" height="260.000000pt" viewBox="0 0 260.000000 260.000000"
 preserveAspectRatio="xMidYMid meet">
<metadata>
Created by potrace 1.14, written by Peter Selinger 2001-2017
</metadata>
<g transform="translate(0.000000,260.000000) scale(0.100000,-0.100000)"
fill="#000000" stroke="none">
<path d="M1165 2593 c-355 -38 -688 -228 -906 -518 -123 -163 -209 -369 -243
-580 -14 -87 -15 -336 -1 -395 3 -14 8 -40 11 -58 8 -50 48 -178 80 -257 74
-185 242 -398 419 -529 166 -124 404 -222 590 -244 114 -13 355 -7 445 12 490
103 875 470 999 952 30 113 32 132 36 294 3 125 -1 183 -19 285 -65 362 -326
711 -668 893 -97 51 -281 114 -388 132 -70 12 -288 20 -355 13z"/>
</g>
</svg>
