<?xml version="1.0" encoding="utf-8"?>
<!-- Generator: Adobe Illustrator 23.0.1, SVG Export Plug-In . SVG Version: 6.00 Build 0)  -->
<svg version="1.1" id="Camada_1" xmlns="http://www.w3.org/2000/svg" xmlns:xlink="http://www.w3.org/1999/xlink" x="0px" y="0px"
	 viewBox="0 0 42 42" style="enable-background:new 0 0 42 42;" xml:space="preserve">
<style type="text/css">
	.st0{fill:#009B2D;}
	.st1{fill:#FFDF00;}
	.st2{fill:#002279;}
	.st3{fill:#FFFFFF;}
</style>
<g>
	<path class="st0" d="M21,42C9.4,42,0,32.6,0,21S9.4,0,21,0s21,9.4,21,21S32.6,42,21,42z"/>
	<path class="st1" d="M41.77,23.97c0.14-0.96,0.23-1.94,0.23-2.94c0-0.76-0.05-1.52-0.13-2.26L20.77,5.23L0.16,18.54
		C0.06,19.36,0,20.19,0,21.03c0,1.1,0.11,2.18,0.27,3.23l20.55,13.33L41.77,23.97z"/>
	<ellipse class="st2" cx="20.68" cy="21.32" rx="10.58" ry="10.7"/>
	<path class="st3" d="M19.7,17.1c7.23,1.54,11.43,5.82,11.43,5.82c-0.11,0.83-0.39,1.7-0.39,1.7c-4.65-4.45-10.46-5.65-10.46-5.65
		c-5.17-1.26-9.84-0.35-9.84-0.35c0.15-0.6,0.57-1.64,0.57-1.64S14.53,16.31,19.7,17.1z"/>
	<polygon class="st3" points="12.03,18.95 12.13,19.27 12.46,19.27 12.2,19.46 12.3,19.78 12.03,19.59 11.76,19.78 11.87,19.46 
		11.6,19.27 11.93,19.27 	"/>
	<polygon class="st3" points="16.62,21.38 16.71,21.66 17,21.66 16.77,21.83 16.86,22.1 16.62,21.93 16.39,22.1 16.48,21.83 
		16.25,21.66 16.54,21.66 	"/>
	<polygon class="st3" points="14.01,22.99 14.07,23.16 14.24,23.16 14.1,23.26 14.15,23.43 14.01,23.33 13.87,23.43 13.93,23.26 
		13.78,23.16 13.96,23.16 	"/>
	<polygon class="st3" points="12.97,23.43 13.08,23.78 13.45,23.78 13.15,24 13.26,24.35 12.97,24.13 12.67,24.35 12.78,24 
		12.49,23.78 12.85,23.78 	"/>
	<polygon class="st3" points="11.65,24.51 11.74,24.77 12.01,24.77 11.79,24.93 11.87,25.19 11.65,25.03 11.44,25.19 11.52,24.93 
		11.3,24.77 11.57,24.77 	"/>
	<polygon class="st3" points="15.17,24.61 15.25,24.87 15.52,24.87 15.3,25.03 15.39,25.29 15.17,25.13 14.95,25.29 15.03,25.03 
		14.81,24.87 15.08,24.87 	"/>
	<polygon class="st3" points="14.85,25.69 14.93,25.95 15.2,25.95 14.98,26.11 15.07,26.37 14.85,26.21 14.63,26.37 14.71,26.11 
		14.49,25.95 14.76,25.95 	"/>
	<polygon class="st3" points="16.41,26.61 16.5,26.9 16.81,26.9 16.56,27.08 16.66,27.37 16.41,27.19 16.17,27.37 16.26,27.08 
		16.01,26.9 16.32,26.9 	"/>
	<polygon class="st3" points="20.64,25.74 20.73,26.04 21.04,26.04 20.79,26.22 20.89,26.51 20.64,26.33 20.4,26.51 20.49,26.22 
		20.25,26.04 20.55,26.04 	"/>
	<polygon class="st3" points="21.88,23.64 21.97,23.91 22.25,23.91 22.02,24.07 22.11,24.34 21.88,24.18 21.66,24.34 21.74,24.07 
		21.52,23.91 21.8,23.91 	"/>
	<polygon class="st3" points="20.64,22.66 20.73,22.93 21.01,22.93 20.78,23.1 20.87,23.37 20.64,23.2 20.41,23.37 20.5,23.1 
		20.27,22.93 20.55,22.93 	"/>
	<polygon class="st3" points="19.57,23.64 19.65,23.88 19.9,23.88 19.7,24.03 19.77,24.27 19.57,24.12 19.37,24.27 19.45,24.03 
		19.25,23.88 19.5,23.88 	"/>
	<polygon class="st3" points="20.1,24.5 20.16,24.68 20.35,24.68 20.2,24.79 20.25,24.97 20.1,24.86 19.95,24.97 20.01,24.79 
		19.86,24.68 20.05,24.68 	"/>
	<polygon class="st3" points="23.53,20.56 23.58,20.74 23.77,20.74 23.62,20.85 23.68,21.03 23.53,20.92 23.38,21.03 23.44,20.85 
		23.29,20.74 23.47,20.74 	"/>
	<polygon class="st3" points="23.93,17.52 24.04,17.85 24.38,17.85 24.1,18.06 24.21,18.38 23.93,18.18 23.66,18.38 23.76,18.06 
		23.49,17.85 23.83,17.85 	"/>
	<polygon class="st3" points="28.05,24.63 28.16,24.96 28.5,24.96 28.22,25.16 28.33,25.49 28.05,25.29 27.77,25.49 27.88,25.16 
		27.6,24.96 27.95,24.96 	"/>
	<polygon class="st3" points="27.83,26.48 27.92,26.76 28.2,26.76 27.97,26.93 28.06,27.2 27.83,27.03 27.6,27.2 27.69,26.93 
		27.45,26.76 27.74,26.76 	"/>
	<polygon class="st3" points="28.48,25.66 28.57,25.94 28.86,25.94 28.63,26.11 28.71,26.38 28.48,26.21 28.25,26.38 28.34,26.11 
		28.11,25.94 28.4,25.94 	"/>
	<polygon class="st3" points="29.52,24.86 29.58,25.07 29.8,25.07 29.63,25.2 29.69,25.41 29.52,25.28 29.34,25.41 29.41,25.2 
		29.23,25.07 29.45,25.07 	"/>
	<polygon class="st3" points="26.99,27.13 27.06,27.34 27.28,27.34 27.1,27.47 27.17,27.68 26.99,27.55 26.81,27.68 26.88,27.47 
		26.7,27.34 26.92,27.34 	"/>
	<polygon class="st3" points="25.94,27.93 26.02,28.17 26.27,28.17 26.07,28.32 26.15,28.56 25.94,28.41 25.74,28.56 25.82,28.32 
		25.62,28.17 25.87,28.17 	"/>
	<polygon class="st3" points="25.87,26.94 25.94,27.14 26.14,27.14 25.98,27.26 26.04,27.46 25.87,27.33 25.71,27.46 25.77,27.26 
		25.6,27.14 25.81,27.14 	"/>
	<polygon class="st3" points="24.73,27.32 24.79,27.52 25,27.52 24.83,27.64 24.9,27.84 24.73,27.72 24.56,27.84 24.62,27.64 
		24.46,27.52 24.66,27.52 	"/>
	<polygon class="st3" points="22.98,27.03 23.05,27.23 23.25,27.23 23.09,27.36 23.15,27.56 22.98,27.43 22.82,27.56 22.88,27.36 
		22.71,27.23 22.92,27.23 	"/>
	<polygon class="st3" points="25.94,29.1 26,29.3 26.21,29.3 26.04,29.42 26.1,29.62 25.94,29.5 25.77,29.62 25.83,29.42 
		25.67,29.3 25.87,29.3 	"/>
	<polygon class="st3" points="23.83,28.21 23.91,28.45 24.16,28.45 23.96,28.6 24.03,28.84 23.83,28.7 23.63,28.84 23.7,28.6 
		23.5,28.45 23.75,28.45 	"/>
	<polygon class="st3" points="20.67,29.55 20.71,29.67 20.83,29.67 20.73,29.74 20.77,29.85 20.67,29.78 20.58,29.85 20.61,29.74 
		20.52,29.67 20.64,29.67 	"/>
	<g>
		<path class="st0" d="M11.94,17.6c0.06,0.31-0.12,0.49-0.37,0.53c-0.26,0.04-0.49-0.11-0.55-0.38c-0.07-0.28,0.09-0.5,0.37-0.54
			C11.67,17.17,11.89,17.33,11.94,17.6z M11.16,17.72c0.05,0.19,0.2,0.34,0.4,0.31s0.28-0.21,0.24-0.41
			c-0.04-0.18-0.18-0.35-0.4-0.31C11.18,17.34,11.11,17.53,11.16,17.72z"/>
		<path class="st0" d="M12.5,17.1c0.07-0.02,0.16-0.03,0.25-0.04c0.14-0.01,0.24,0,0.31,0.05c0.06,0.04,0.1,0.09,0.1,0.16
			c0.02,0.12-0.06,0.2-0.16,0.24l0,0c0.08,0.02,0.14,0.08,0.17,0.17c0.05,0.12,0.08,0.21,0.11,0.24c-0.04,0-0.09,0.01-0.13,0.01
			c-0.02-0.02-0.05-0.1-0.1-0.21c-0.05-0.12-0.11-0.16-0.23-0.16c-0.04,0-0.08,0.01-0.12,0.01c0.02,0.13,0.04,0.26,0.06,0.39
			c-0.04,0-0.09,0.01-0.13,0.01C12.59,17.69,12.54,17.4,12.5,17.1z M12.69,17.5c0.04,0,0.09-0.01,0.13-0.01
			c0.14-0.01,0.22-0.09,0.21-0.19c-0.02-0.12-0.12-0.16-0.26-0.15c-0.06,0.01-0.11,0.01-0.13,0.02
			C12.66,17.28,12.68,17.39,12.69,17.5z"/>
		<path class="st0" d="M13.79,17.01c0.08-0.01,0.18-0.03,0.28-0.03c0.19-0.01,0.33,0.03,0.43,0.1s0.16,0.18,0.16,0.32
			c0.01,0.15-0.04,0.27-0.12,0.35c-0.09,0.08-0.24,0.13-0.43,0.14c-0.09,0-0.17,0-0.23,0C13.85,17.6,13.82,17.31,13.79,17.01z
			 M14,17.8c0.03,0,0.08,0,0.13,0c0.28-0.01,0.42-0.15,0.4-0.39c-0.01-0.21-0.16-0.34-0.44-0.34c-0.07,0-0.12,0.01-0.16,0.02
			C13.95,17.33,13.98,17.56,14,17.8z"/>
		<path class="st0" d="M15.82,17.48c-0.13-0.01-0.26-0.01-0.39-0.01c0,0.11,0,0.22,0.01,0.32c0.14,0,0.29,0.01,0.43,0.02
			c0,0.03,0,0.06,0,0.1c-0.19-0.01-0.37-0.02-0.56-0.02c-0.01-0.3-0.02-0.6-0.03-0.9c0.19,0,0.37,0.01,0.56,0.02
			c0,0.03,0,0.06,0,0.1c-0.14-0.01-0.28-0.01-0.43-0.02c0,0.09,0,0.19,0.01,0.28c0.13,0,0.26,0.01,0.4,0.01
			C15.82,17.42,15.82,17.45,15.82,17.48z"/>
		<path class="st0" d="M17.34,17.62c0-0.12,0-0.27,0.01-0.39l0,0c-0.04,0.1-0.09,0.21-0.15,0.32c-0.07,0.14-0.14,0.28-0.2,0.41
			c-0.03,0-0.06-0.01-0.1-0.01c-0.05-0.15-0.09-0.29-0.14-0.44c-0.04-0.13-0.08-0.25-0.1-0.36l0,0c-0.01,0.11-0.02,0.26-0.03,0.39
			s-0.03,0.25-0.04,0.38c-0.04,0-0.08-0.01-0.12-0.01c0.03-0.3,0.06-0.59,0.1-0.89c0.06,0,0.11,0.01,0.17,0.01
			c0.05,0.15,0.1,0.3,0.16,0.45c0.04,0.11,0.07,0.21,0.09,0.31l0,0c0.03-0.09,0.07-0.18,0.12-0.29c0.07-0.14,0.14-0.27,0.21-0.41
			c0.06,0.01,0.11,0.01,0.17,0.02c0,0.3,0,0.6-0.01,0.9c-0.04,0-0.08-0.01-0.12-0.01C17.33,17.89,17.34,17.75,17.34,17.62z"/>
		<path class="st0" d="M19.42,17.92c-0.13-0.03-0.26-0.05-0.39-0.07c-0.02,0.11-0.03,0.21-0.05,0.32c0.14,0.03,0.28,0.05,0.42,0.08
			c-0.01,0.03-0.01,0.06-0.02,0.09c-0.18-0.04-0.37-0.07-0.55-0.11c0.04-0.29,0.09-0.59,0.13-0.88c0.18,0.03,0.37,0.07,0.55,0.11
			c-0.01,0.03-0.01,0.06-0.02,0.09c-0.14-0.03-0.28-0.06-0.42-0.08c-0.01,0.09-0.03,0.18-0.04,0.28c0.13,0.02,0.26,0.05,0.39,0.08
			C19.43,17.86,19.42,17.89,19.42,17.92z"/>
		<path class="st0" d="M20.93,17.8c0.06,0.01,0.15,0.02,0.25,0.05c0.13,0.04,0.21,0.09,0.26,0.15c0.04,0.06,0.06,0.13,0.04,0.2
			c-0.02,0.08-0.07,0.13-0.13,0.16c-0.08,0.04-0.2,0.04-0.32,0.01c-0.04-0.01-0.07-0.02-0.1-0.04c-0.03,0.11-0.06,0.23-0.09,0.34
			c-0.04-0.01-0.08-0.02-0.12-0.03C20.78,18.37,20.86,18.09,20.93,17.8z M20.95,18.25c0.03,0.01,0.06,0.03,0.1,0.04
			c0.15,0.04,0.26,0,0.3-0.11c0.03-0.11-0.05-0.19-0.19-0.23c-0.06-0.02-0.1-0.02-0.12-0.02C21.01,18.03,20.98,18.14,20.95,18.25z"
			/>
		<path class="st0" d="M22.16,18.17c0.07,0.01,0.16,0.03,0.25,0.06c0.14,0.05,0.22,0.1,0.26,0.17c0.04,0.05,0.04,0.12,0.02,0.19
			c-0.04,0.11-0.15,0.16-0.26,0.15l0,0c0.07,0.05,0.09,0.12,0.08,0.22c-0.01,0.13-0.02,0.22-0.01,0.26
			c-0.04-0.01-0.08-0.03-0.13-0.04c-0.01-0.03,0-0.11,0.01-0.22c0.01-0.13-0.02-0.19-0.14-0.23c-0.04-0.01-0.08-0.03-0.12-0.04
			c-0.04,0.12-0.08,0.24-0.12,0.37c-0.04-0.01-0.08-0.03-0.12-0.04C21.98,18.72,22.07,18.44,22.16,18.17z M22.16,18.59
			c0.04,0.01,0.09,0.03,0.13,0.04c0.13,0.04,0.24,0.01,0.27-0.08c0.04-0.11-0.04-0.19-0.17-0.23c-0.06-0.02-0.11-0.03-0.13-0.03
			C22.22,18.39,22.19,18.49,22.16,18.59z"/>
		<path class="st0" d="M24.03,19.32c-0.13,0.28-0.38,0.34-0.62,0.25c-0.24-0.1-0.35-0.33-0.25-0.58c0.1-0.26,0.36-0.36,0.62-0.26
			C24.04,18.84,24.14,19.08,24.03,19.32z M23.29,19.04c-0.07,0.18-0.02,0.38,0.16,0.45c0.19,0.08,0.36-0.03,0.44-0.22
			c0.07-0.16,0.05-0.37-0.16-0.46C23.53,18.73,23.36,18.85,23.29,19.04z"/>
		<path class="st0" d="M25.1,20.27c-0.06-0.01-0.18-0.03-0.3-0.09c-0.14-0.07-0.23-0.15-0.28-0.26c-0.05-0.1-0.04-0.23,0.02-0.36
			c0.11-0.24,0.39-0.33,0.71-0.17c0.11,0.05,0.18,0.11,0.21,0.15c-0.02,0.02-0.05,0.05-0.07,0.07c-0.04-0.04-0.09-0.09-0.19-0.13
			c-0.23-0.11-0.44-0.06-0.53,0.14c-0.1,0.2-0.02,0.39,0.19,0.49c0.08,0.04,0.13,0.05,0.17,0.05c0.04-0.08,0.08-0.16,0.12-0.23
			c-0.06-0.03-0.12-0.06-0.19-0.09c0.01-0.03,0.03-0.05,0.04-0.08c0.1,0.05,0.2,0.1,0.3,0.15C25.24,20.02,25.17,20.15,25.1,20.27z"
			/>
		<path class="st0" d="M26.09,19.84c0.07,0.02,0.15,0.06,0.24,0.11c0.13,0.07,0.2,0.13,0.23,0.21c0.03,0.06,0.02,0.13-0.02,0.18
			c-0.06,0.1-0.18,0.12-0.29,0.1l0,0c0.06,0.06,0.06,0.14,0.04,0.23c-0.04,0.12-0.06,0.21-0.06,0.25c-0.04-0.02-0.08-0.04-0.12-0.07
			c0-0.03,0.02-0.11,0.05-0.21c0.04-0.12,0.01-0.19-0.09-0.25c-0.04-0.02-0.07-0.04-0.11-0.06c-0.06,0.11-0.13,0.22-0.19,0.33
			c-0.04-0.02-0.08-0.04-0.11-0.06C25.8,20.35,25.94,20.09,26.09,19.84z M26,20.26c0.04,0.02,0.08,0.04,0.12,0.06
			c0.12,0.07,0.24,0.05,0.29-0.03c0.06-0.1,0-0.19-0.12-0.26c-0.06-0.03-0.1-0.05-0.12-0.05C26.11,20.07,26.06,20.16,26,20.26z"/>
		<path class="st0" d="M27.41,21.15c-0.11-0.07-0.22-0.14-0.34-0.21c-0.06,0.09-0.12,0.18-0.18,0.27c0.12,0.08,0.25,0.15,0.37,0.23
			c-0.02,0.03-0.04,0.05-0.06,0.08c-0.16-0.1-0.32-0.2-0.48-0.3c0.16-0.25,0.33-0.5,0.49-0.74c0.16,0.1,0.32,0.2,0.48,0.3
			c-0.02,0.03-0.04,0.05-0.06,0.08c-0.12-0.08-0.24-0.15-0.36-0.23c-0.05,0.08-0.1,0.16-0.16,0.23c0.11,0.07,0.23,0.14,0.34,0.21
			C27.45,21.1,27.43,21.12,27.41,21.15z"/>
		<path class="st0" d="M27.79,21.73c0.03,0.06,0.08,0.13,0.16,0.18c0.11,0.08,0.21,0.07,0.27,0c0.05-0.07,0.04-0.13-0.05-0.25
			c-0.11-0.14-0.15-0.25-0.07-0.36s0.26-0.12,0.42,0c0.09,0.06,0.14,0.12,0.16,0.17c-0.03,0.02-0.06,0.04-0.09,0.05
			c-0.02-0.03-0.06-0.09-0.14-0.15c-0.12-0.08-0.21-0.05-0.24,0c-0.05,0.07-0.02,0.13,0.06,0.25c0.11,0.15,0.13,0.25,0.05,0.36
			c-0.09,0.11-0.25,0.13-0.45,0c-0.08-0.05-0.15-0.13-0.18-0.19C27.73,21.77,27.76,21.75,27.79,21.73z"/>
		<path class="st0" d="M28.75,22.42c0.03,0.06,0.08,0.13,0.15,0.19c0.1,0.08,0.21,0.08,0.27,0.02c0.06-0.06,0.04-0.13-0.03-0.25
			c-0.1-0.14-0.13-0.26-0.05-0.36c0.09-0.11,0.26-0.11,0.43,0.02c0.08,0.07,0.13,0.13,0.15,0.18c-0.03,0.02-0.06,0.03-0.09,0.05
			c-0.02-0.03-0.05-0.1-0.13-0.15c-0.11-0.09-0.2-0.06-0.24-0.02c-0.05,0.06-0.03,0.13,0.05,0.26c0.1,0.15,0.12,0.26,0.03,0.36
			s-0.26,0.12-0.45-0.02c-0.08-0.06-0.14-0.14-0.17-0.2C28.69,22.46,28.72,22.44,28.75,22.42z"/>
		<path class="st0" d="M30.58,23.53c-0.22,0.21-0.5,0.19-0.69,0.02c-0.2-0.17-0.22-0.43-0.03-0.63c0.2-0.21,0.48-0.21,0.7-0.02
			C30.77,23.09,30.77,23.34,30.58,23.53z M29.97,23.01c-0.13,0.14-0.16,0.34-0.01,0.47c0.15,0.14,0.36,0.1,0.51-0.05
			c0.13-0.12,0.18-0.33,0.01-0.48C30.31,22.81,30.1,22.87,29.97,23.01z"/>
	</g>
</g>
</svg>
