<?xml version="1.0" encoding="utf-8"?>
<!-- Generator: Adobe Illustrator 23.0.1, SVG Export Plug-In . SVG Version: 6.00 Build 0)  -->
<svg version="1.1" id="Camada_1" xmlns="http://www.w3.org/2000/svg" xmlns:xlink="http://www.w3.org/1999/xlink" x="0px" y="0px"
	 viewBox="0 0 42 42" style="enable-background:new 0 0 42 42;" xml:space="preserve">
<style type="text/css">
	.st0{clip-path:url(#SVGID_2_);}
	.st1{fill:#FFFFFF;}
	.st2{fill:#CF1C31;}
	.st3{fill:#3A3870;}
</style>
<g>
	<defs>
		<circle id="SVGID_1_" cx="21" cy="21" r="21"/>
	</defs>
	<clipPath id="SVGID_2_">
		<use xlink:href="#SVGID_1_"  style="overflow:visible;"/>
	</clipPath>
	<g class="st0">
		<rect x="-9.74" y="-0.01" class="st1" width="80.23" height="42.02"/>
		<rect x="-9.74" y="-0.17" class="st2" width="80.16" height="3.32"/>
		<rect x="-9.74" y="6.33" class="st2" width="80.16" height="3.32"/>
		<rect x="-9.74" y="12.84" class="st2" width="80.16" height="3.32"/>
		<rect x="-9.74" y="19.34" class="st2" width="80.16" height="3.32"/>
		<rect x="-9.74" y="25.84" class="st2" width="80.16" height="3.32"/>
		<rect x="-9.74" y="32.34" class="st2" width="80.16" height="3.32"/>
		<rect x="-9.74" y="38.84" class="st2" width="80.16" height="3.32"/>
		<rect x="-9.74" y="-0.17" class="st3" width="32.02" height="22.83"/>
		<g>
			<polygon class="st1" points="-7.01,0.71 -6.71,1.64 -5.75,1.64 -6.53,2.21 -6.23,3.15 -7.01,2.57 -7.8,3.15 -7.5,2.21 
				-8.28,1.64 -7.31,1.64 			"/>
			<polygon class="st1" points="-4.38,3.05 -4.08,3.98 -3.11,3.98 -3.89,4.56 -3.59,5.49 -4.38,4.91 -5.16,5.49 -4.86,4.56 
				-5.64,3.98 -4.68,3.98 			"/>
			<polygon class="st1" points="-4.38,7.63 -4.08,8.56 -3.11,8.56 -3.89,9.13 -3.59,10.07 -4.38,9.49 -5.16,10.07 -4.86,9.13 
				-5.64,8.56 -4.68,8.56 			"/>
			<polygon class="st1" points="-4.38,12.2 -4.08,13.13 -3.11,13.13 -3.89,13.71 -3.59,14.64 -4.38,14.07 -5.16,14.64 -4.86,13.71 
				-5.64,13.13 -4.68,13.13 			"/>
			<polygon class="st1" points="-4.38,16.78 -4.08,17.71 -3.11,17.71 -3.89,18.29 -3.59,19.22 -4.38,18.64 -5.16,19.22 -4.86,18.29 
				-5.64,17.71 -4.68,17.71 			"/>
			<polygon class="st1" points="0.97,3.05 1.27,3.98 2.24,3.98 1.46,4.56 1.76,5.49 0.97,4.91 0.19,5.49 0.49,4.56 -0.3,3.98 
				0.67,3.98 			"/>
			<polygon class="st1" points="0.97,7.63 1.27,8.56 2.24,8.56 1.46,9.13 1.76,10.07 0.97,9.49 0.19,10.07 0.49,9.13 -0.3,8.56 
				0.67,8.56 			"/>
			<polygon class="st1" points="0.97,12.2 1.27,13.13 2.24,13.13 1.46,13.71 1.76,14.64 0.97,14.07 0.19,14.64 0.49,13.71 
				-0.3,13.13 0.67,13.13 			"/>
			<polygon class="st1" points="0.97,16.78 1.27,17.71 2.24,17.71 1.46,18.29 1.76,19.22 0.97,18.64 0.19,19.22 0.49,18.29 
				-0.3,17.71 0.67,17.71 			"/>
			<polygon class="st1" points="6.32,3.05 6.62,3.98 7.59,3.98 6.81,4.56 7.11,5.49 6.32,4.91 5.54,5.49 5.84,4.56 5.05,3.98 
				6.02,3.98 			"/>
			<polygon class="st1" points="6.32,7.63 6.62,8.56 7.59,8.56 6.81,9.13 7.11,10.07 6.32,9.49 5.54,10.07 5.84,9.13 5.05,8.56 
				6.02,8.56 			"/>
			<polygon class="st1" points="6.32,12.2 6.62,13.13 7.59,13.13 6.81,13.71 7.11,14.64 6.32,14.07 5.54,14.64 5.84,13.71 
				5.05,13.13 6.02,13.13 			"/>
			<polygon class="st1" points="6.32,16.78 6.62,17.71 7.59,17.71 6.81,18.29 7.11,19.22 6.32,18.64 5.54,19.22 5.84,18.29 
				5.05,17.71 6.02,17.71 			"/>
			<polygon class="st1" points="11.67,3.05 11.97,3.98 12.94,3.98 12.16,4.56 12.46,5.49 11.67,4.91 10.89,5.49 11.19,4.56 
				10.4,3.98 11.37,3.98 			"/>
			<polygon class="st1" points="11.67,7.63 11.97,8.56 12.94,8.56 12.16,9.13 12.46,10.07 11.67,9.49 10.89,10.07 11.19,9.13 
				10.4,8.56 11.37,8.56 			"/>
			<polygon class="st1" points="11.67,12.2 11.97,13.13 12.94,13.13 12.16,13.71 12.46,14.64 11.67,14.07 10.89,14.64 11.19,13.71 
				10.4,13.13 11.37,13.13 			"/>
			<polygon class="st1" points="11.67,16.78 11.97,17.71 12.94,17.71 12.16,18.29 12.46,19.22 11.67,18.64 10.89,19.22 11.19,18.29 
				10.4,17.71 11.37,17.71 			"/>
			<polygon class="st1" points="17.02,3.05 17.32,3.98 18.29,3.98 17.51,4.56 17.81,5.49 17.02,4.91 16.24,5.49 16.54,4.56 
				15.75,3.98 16.72,3.98 			"/>
			<polygon class="st1" points="17.02,7.63 17.32,8.56 18.29,8.56 17.51,9.13 17.81,10.07 17.02,9.49 16.24,10.07 16.54,9.13 
				15.75,8.56 16.72,8.56 			"/>
			<polygon class="st1" points="17.02,12.2 17.32,13.13 18.29,13.13 17.51,13.71 17.81,14.64 17.02,14.07 16.24,14.64 16.54,13.71 
				15.75,13.13 16.72,13.13 			"/>
			<polygon class="st1" points="17.02,16.78 17.32,17.71 18.29,17.71 17.51,18.29 17.81,19.22 17.02,18.64 16.24,19.22 16.54,18.29 
				15.75,17.71 16.72,17.71 			"/>
			<polygon class="st1" points="-7.01,5.28 -6.71,6.22 -5.75,6.22 -6.53,6.79 -6.23,7.72 -7.01,7.15 -7.8,7.72 -7.5,6.79 
				-8.28,6.22 -7.31,6.22 			"/>
			<polygon class="st1" points="-7.01,9.86 -6.71,10.79 -5.75,10.79 -6.53,11.37 -6.23,12.3 -7.01,11.72 -7.8,12.3 -7.5,11.37 
				-8.28,10.79 -7.31,10.79 			"/>
			<polygon class="st1" points="-7.01,14.44 -6.71,15.37 -5.75,15.37 -6.53,15.94 -6.23,16.88 -7.01,16.3 -7.8,16.88 -7.5,15.94 
				-8.28,15.37 -7.31,15.37 			"/>
			<polygon class="st1" points="-7.01,19.01 -6.71,19.95 -5.75,19.95 -6.53,20.52 -6.23,21.45 -7.01,20.88 -7.8,21.45 -7.5,20.52 
				-8.28,19.95 -7.31,19.95 			"/>
			<polygon class="st1" points="-1.74,0.71 -1.44,1.64 -0.47,1.64 -1.25,2.21 -0.95,3.15 -1.74,2.57 -2.52,3.15 -2.22,2.21 
				-3.01,1.64 -2.04,1.64 			"/>
			<polygon class="st1" points="-1.74,5.28 -1.44,6.22 -0.47,6.22 -1.25,6.79 -0.95,7.72 -1.74,7.15 -2.52,7.72 -2.22,6.79 
				-3.01,6.22 -2.04,6.22 			"/>
			<polygon class="st1" points="-1.74,9.86 -1.44,10.79 -0.47,10.79 -1.25,11.37 -0.95,12.3 -1.74,11.72 -2.52,12.3 -2.22,11.37 
				-3.01,10.79 -2.04,10.79 			"/>
			<polygon class="st1" points="-1.74,14.44 -1.44,15.37 -0.47,15.37 -1.25,15.94 -0.95,16.88 -1.74,16.3 -2.52,16.88 -2.22,15.94 
				-3.01,15.37 -2.04,15.37 			"/>
			<polygon class="st1" points="-1.74,19.01 -1.44,19.95 -0.47,19.95 -1.25,20.52 -0.95,21.45 -1.74,20.88 -2.52,21.45 -2.22,20.52 
				-3.01,19.95 -2.04,19.95 			"/>
			<polygon class="st1" points="3.68,0.71 3.98,1.64 4.95,1.64 4.17,2.21 4.47,3.15 3.68,2.57 2.9,3.15 3.2,2.21 2.41,1.64 
				3.38,1.64 			"/>
			<polygon class="st1" points="3.68,5.28 3.98,6.22 4.95,6.22 4.17,6.79 4.47,7.72 3.68,7.15 2.9,7.72 3.2,6.79 2.41,6.22 
				3.38,6.22 			"/>
			<polygon class="st1" points="3.68,9.86 3.98,10.79 4.95,10.79 4.17,11.37 4.47,12.3 3.68,11.72 2.9,12.3 3.2,11.37 2.41,10.79 
				3.38,10.79 			"/>
			<polygon class="st1" points="3.68,14.44 3.98,15.37 4.95,15.37 4.17,15.94 4.47,16.88 3.68,16.3 2.9,16.88 3.2,15.94 2.41,15.37 
				3.38,15.37 			"/>
			<polygon class="st1" points="3.68,19.01 3.98,19.95 4.95,19.95 4.17,20.52 4.47,21.45 3.68,20.88 2.9,21.45 3.2,20.52 
				2.41,19.95 3.38,19.95 			"/>
			<polygon class="st1" points="9,0.71 9.3,1.64 10.27,1.64 9.48,2.21 9.78,3.15 9,2.57 8.21,3.15 8.51,2.21 7.73,1.64 8.7,1.64 			
				"/>
			<polygon class="st1" points="9,5.28 9.3,6.22 10.27,6.22 9.48,6.79 9.78,7.72 9,7.15 8.21,7.72 8.51,6.79 7.73,6.22 8.7,6.22 			
				"/>
			<polygon class="st1" points="9,9.86 9.3,10.79 10.27,10.79 9.48,11.37 9.78,12.3 9,11.72 8.21,12.3 8.51,11.37 7.73,10.79 
				8.7,10.79 			"/>
			<polygon class="st1" points="9,14.44 9.3,15.37 10.27,15.37 9.48,15.94 9.78,16.88 9,16.3 8.21,16.88 8.51,15.94 7.73,15.37 
				8.7,15.37 			"/>
			<polygon class="st1" points="9,19.01 9.3,19.95 10.27,19.95 9.48,20.52 9.78,21.45 9,20.88 8.21,21.45 8.51,20.52 7.73,19.95 
				8.7,19.95 			"/>
			<polygon class="st1" points="14.31,0.71 14.61,1.64 15.58,1.64 14.8,2.21 15.09,3.15 14.31,2.57 13.53,3.15 13.83,2.21 
				13.04,1.64 14.01,1.64 			"/>
			<polygon class="st1" points="14.31,5.28 14.61,6.22 15.58,6.22 14.8,6.79 15.09,7.72 14.31,7.15 13.53,7.72 13.83,6.79 
				13.04,6.22 14.01,6.22 			"/>
			<polygon class="st1" points="14.31,9.86 14.61,10.79 15.58,10.79 14.8,11.37 15.09,12.3 14.31,11.72 13.53,12.3 13.83,11.37 
				13.04,10.79 14.01,10.79 			"/>
			<polygon class="st1" points="14.31,14.44 14.61,15.37 15.58,15.37 14.8,15.94 15.09,16.88 14.31,16.3 13.53,16.88 13.83,15.94 
				13.04,15.37 14.01,15.37 			"/>
			<polygon class="st1" points="14.31,19.01 14.61,19.95 15.58,19.95 14.8,20.52 15.09,21.45 14.31,20.88 13.53,21.45 13.83,20.52 
				13.04,19.95 14.01,19.95 			"/>
			<polygon class="st1" points="19.73,0.71 20.03,1.64 21,1.64 20.22,2.21 20.52,3.15 19.73,2.57 18.95,3.15 19.25,2.21 18.46,1.64 
				19.43,1.64 			"/>
			<polygon class="st1" points="19.73,5.28 20.03,6.22 21,6.22 20.22,6.79 20.52,7.72 19.73,7.15 18.95,7.72 19.25,6.79 18.46,6.22 
				19.43,6.22 			"/>
			<polygon class="st1" points="19.73,9.86 20.03,10.79 21,10.79 20.22,11.37 20.52,12.3 19.73,11.72 18.95,12.3 19.25,11.37 
				18.46,10.79 19.43,10.79 			"/>
			<polygon class="st1" points="19.73,14.44 20.03,15.37 21,15.37 20.22,15.94 20.52,16.88 19.73,16.3 18.95,16.88 19.25,15.94 
				18.46,15.37 19.43,15.37 			"/>
			<polygon class="st1" points="19.73,19.01 20.03,19.95 21,19.95 20.22,20.52 20.52,21.45 19.73,20.88 18.95,21.45 19.25,20.52 
				18.46,19.95 19.43,19.95 			"/>
		</g>
	</g>
</g>
</svg>
